<?xml version="1.0" encoding="UTF-8"?>
<svg width="25px" height="25px" viewBox="0 0 25 25" version="1.1" xmlns="http://www.w3.org/2000/svg" xmlns:xlink="http://www.w3.org/1999/xlink">
    <!-- Generator: Sketch 53.2 (72643) - https://sketchapp.com -->
    <title>19</title>
    <desc>Created with Sketch.</desc>
    <g id="Symbols" stroke="none" stroke-width="1" fill="none" fill-rule="evenodd">
        <g id="Menú-Cuentas-bancarias" transform="translate(0.000000, -4.000000)" fill="#343B4A" fill-rule="nonzero">
            <g id="19" transform="translate(0.000000, 4.000000)">
                <path d="M14.1130769,24.6134615 L10.5019231,24.6134615 C10.1842308,24.6134615 9.92692308,24.3561538 9.92692308,24.0384615 L9.92692308,21.6026923 C9.06961538,21.3792308 8.23461538,21.0253846 7.43423077,20.5480769 L5.95884615,22.0230769 C5.73423077,22.2476923 5.37038462,22.2476923 5.14576923,22.0230769 L2.59230769,19.4696154 C2.48461538,19.3619231 2.42384615,19.2157692 2.42384615,19.0630769 C2.42384615,18.9103846 2.48461538,18.7642308 2.59230769,18.6565385 L4.06346154,17.1853846 C3.58461538,16.3865385 3.23038462,15.5496154 3.00692308,14.6892308 L0.575,14.6892308 C0.257307692,14.6896154 0,14.4323077 0,14.1146154 L0,10.5038462 C0,10.1861538 0.257307692,9.92884615 0.575,9.92884615 L3.00730769,9.92884615 C3.23115385,9.06884615 3.585,8.23192308 4.06423077,7.43269231 L2.59269231,5.96115385 C2.36846154,5.73653846 2.36846154,5.37269231 2.59307692,5.14807692 L5.14653846,2.59461538 C5.25423077,2.48692308 5.40076923,2.42615385 5.55307692,2.42615385 L5.55307692,2.42615385 C5.70576923,2.42615385 5.85192308,2.48692308 5.96,2.59461538 L7.43423077,4.06961538 C8.23346154,3.59 9.06884615,3.23692308 9.92769231,3.01461538 L9.92769231,0.576923077 C9.92769231,0.259230769 10.185,0.00192307692 10.5026923,0.00192307692 L14.1138462,0.00192307692 C14.4315385,0.00192307692 14.6888462,0.259230769 14.6888462,0.576923077 L14.6888462,3.01423077 C15.5473077,3.23653846 16.3826923,3.58961538 17.1819231,4.06884615 L18.6565385,2.59423077 C18.8723077,2.37846154 19.2538462,2.37846154 19.4696154,2.59423077 L22.0230769,5.14769231 C22.2476923,5.37230769 22.2476923,5.73615385 22.0230769,5.96076923 L20.5519231,7.43230769 C21.0311538,8.23192308 21.3853846,9.06846154 21.6092308,9.92846154 L24.0415385,9.92846154 C24.3592308,9.92846154 24.6165385,10.1857692 24.6165385,10.5034615 L24.6165385,14.1142308 C24.6165385,14.4319231 24.3592308,14.6892308 24.0415385,14.6892308 L21.6092308,14.6892308 C21.3853846,15.55 21.0311538,16.3865385 20.5523077,17.1853846 L22.0230769,18.6565385 C22.2476923,18.8811538 22.2476923,19.245 22.0230769,19.4696154 L19.4696154,22.0230769 C19.245,22.2476923 18.8811538,22.2476923 18.6565385,22.0230769 L17.1811538,20.5480769 C16.3811538,21.0257692 15.5461538,21.3792308 14.6892308,21.6026923 L14.6892308,24.0384615 C14.6880769,24.3565385 14.4307692,24.6134615 14.1130769,24.6134615 Z M11.0769231,23.4638462 L13.5384615,23.4638462 L13.5384615,21.1465385 C13.5384615,20.8738462 13.7303846,20.6376923 13.9980769,20.5834615 C15.0173077,20.3746154 16.0096154,19.9557692 16.9465385,19.3380769 C17.175,19.1869231 17.4765385,19.2180769 17.6696154,19.4115385 L19.0619231,20.8038462 L20.8023077,19.0634615 L19.4130769,17.6742308 C19.2196154,17.4811538 19.1892308,17.1784615 19.3403846,16.9503846 C19.9592308,16.0161538 20.3788462,15.0226923 20.5880769,13.9992308 C20.6426923,13.7315385 20.8784615,13.5392308 21.1515385,13.5392308 L23.4653846,13.5392308 L23.4653846,11.0784615 L21.1515385,11.0784615 C20.8784615,11.0784615 20.6426923,10.8865385 20.5880769,10.6184615 C20.3792308,9.59538462 19.9596154,8.60269231 19.3403846,7.66730769 C19.1896154,7.43923077 19.22,7.13653846 19.4134615,6.94346154 L20.8026923,5.55384615 L19.0623077,3.81346154 L17.6696154,5.20653846 C17.4769231,5.39961538 17.1734615,5.43115385 16.9453846,5.27884615 C16.0111538,4.65961538 15.02,4.24115385 13.9996154,4.035 C13.7311538,3.98115385 13.5384615,3.745 13.5384615,3.47192308 L13.5384615,1.15153846 L11.0769231,1.15153846 L11.0769231,3.47153846 C11.0769231,3.745 10.8842308,3.98076923 10.6157692,4.03538462 C9.59538462,4.24153846 8.60384615,4.65961538 7.66923077,5.27961538 C7.44115385,5.43076923 7.13846154,5.39961538 6.94538462,5.20653846 L5.55269231,3.81346154 L3.81230769,5.55384615 L5.20192308,6.94346154 C5.39538462,7.13653846 5.42576923,7.43923077 5.275,7.66730769 C4.65615385,8.60230769 4.23615385,9.59538462 4.02730769,10.6184615 C3.97269231,10.8861538 3.73692308,11.0784615 3.46384615,11.0784615 L1.15,11.0784615 L1.15,13.5392308 L3.46384615,13.5392308 C3.73692308,13.5392308 3.97269231,13.7311538 4.02730769,13.9992308 C4.23653846,15.0234615 4.65615385,16.0161538 5.27461538,16.9503846 C5.42576923,17.1784615 5.39538462,17.4811538 5.20192308,17.6742308 L3.81269231,19.0634615 L5.55307692,20.8038462 L6.94576923,19.4115385 C7.13923077,19.2184615 7.44115385,19.1876923 7.66846154,19.3380769 C8.60615385,19.955 9.59846154,20.3746154 10.6180769,20.5834615 C10.8857692,20.6380769 11.0776923,20.8738462 11.0776923,21.1465385 L11.0776923,23.4638462 L11.0769231,23.4638462 Z M12.3076923,18.2969231 C11.9765385,18.2969231 11.6392308,18.2630769 11.2465385,18.1915385 L11.0326923,18.155 C10.7430769,18.0888462 10.4661538,18.0023077 10.1888462,17.8934615 C10.0515385,17.8419231 9.915,17.7880769 9.77807692,17.7226923 C9.77153846,17.7192308 9.72346154,17.6969231 9.71730769,17.6934615 C9.70230769,17.6857692 9.68807692,17.6773077 9.67423077,17.6688462 C8.27,16.9788462 7.21,15.7873077 6.68461538,14.3065385 C6.44230769,13.6303846 6.31923077,12.9576923 6.31923077,12.3088462 C6.31923077,11.6519231 6.43884615,10.9976923 6.68538462,10.31 C7.20923077,8.83269231 8.26807692,7.64115385 9.67076923,6.94846154 C9.69115385,6.935 9.71269231,6.92269231 9.735,6.91192308 C9.75730769,6.90115385 9.80115385,6.88423077 9.82461538,6.87653846 C9.91653846,6.83 10.0542308,6.77153846 10.2,6.71769231 C10.485,6.60923077 10.7526923,6.52692308 11.0134615,6.46730769 C11.0653846,6.455 11.1265385,6.44423077 11.1884615,6.43423077 L11.2473077,6.42423077 C12.0126923,6.28115385 12.6173077,6.28153846 13.3715385,6.42461538 L13.4269231,6.43423077 C13.4888462,6.44423077 13.5496154,6.455 13.6088462,6.46923077 C13.8619231,6.52653846 14.1296154,6.60923077 14.4211538,6.72038462 C14.5615385,6.77192308 14.6992308,6.83038462 14.8376923,6.89615385 C14.8507692,6.90307692 14.8638462,6.90961538 14.8765385,6.91692308 L14.8769231,6.91576923 C16.3115385,7.60230769 17.3969231,8.80846154 17.9334615,10.3111538 C18.1773077,11.0030769 18.2957692,11.6557692 18.2957692,12.3096154 C18.2957692,12.9642308 18.1776923,13.6173077 17.9342308,14.3069231 C17.9338462,14.3073077 17.9338462,14.3080769 17.9338462,14.3084615 C17.405,15.7892308 16.3446154,16.9792308 14.9426923,17.6684615 C14.9284615,17.6773077 14.9138462,17.6865385 14.8984615,17.6942308 C14.8892308,17.6992308 14.855,17.7153846 14.845,17.72 C14.7007692,17.7884615 14.5638462,17.8423077 14.42,17.8969231 C14.1484615,18.0034615 13.8715385,18.09 13.6034615,18.1511538 L13.3676923,18.1923077 C12.9861538,18.2623077 12.6384615,18.2969231 12.3076923,18.2969231 Z M10.2911538,16.6934615 C10.4038462,16.7446154 10.5011538,16.7823077 10.6026923,16.8203846 C10.8338462,16.9111538 11.0553846,16.9811538 11.2684615,17.03 L11.4526923,17.0607692 C12.0996154,17.1788462 12.5323077,17.1776923 13.16,17.0607692 L13.3673077,17.0253846 C13.5588462,16.9811538 13.7807692,16.9115385 14.0061538,16.8230769 C14.1196154,16.78 14.2223077,16.7403846 14.3242308,16.6926923 C14.3423077,16.6815385 14.3615385,16.6707692 14.3811538,16.6619231 C15.5384615,16.11 16.4153846,15.1376923 16.8496154,13.9230769 C17.0488462,13.3588462 17.1453846,12.8311538 17.1453846,12.3088462 C17.1453846,11.7876923 17.0484615,11.26 16.8496154,10.695 C16.4165385,9.48230769 15.5392308,8.50730769 14.3803846,7.95269231 C14.3626923,7.94423077 14.3453846,7.93461538 14.3288462,7.92461538 C14.2088462,7.87115385 14.115,7.83269231 14.0165385,7.79653846 C13.7707692,7.70269231 13.5534615,7.63538462 13.3469231,7.58884615 C13.3069231,7.57884615 13.2723077,7.57384615 13.2373077,7.56807692 L13.1619231,7.55461538 C12.5365385,7.43615385 12.0892308,7.435 11.4553846,7.55461538 L11.3773077,7.56807692 C11.3423077,7.57384615 11.3080769,7.57884615 11.2746154,7.58730769 C11.0603846,7.63576923 10.8434615,7.70307692 10.6038462,7.79461538 C10.4857692,7.83846154 10.3788462,7.88346154 10.2719231,7.93423077 C10.2684615,7.93538462 10.2646154,7.93769231 10.2603846,7.93923077 C10.2519231,7.94384615 10.2430769,7.94807692 10.2346154,7.95269231 C9.07461538,8.50807692 8.19884615,9.48230769 7.76846154,10.6953846 C7.56692308,11.2584615 7.46923077,11.7857692 7.46923077,12.3084615 C7.46923077,12.8323077 7.56692308,13.3596154 7.76807692,13.9203846 C8.19923077,15.1361538 9.07461538,16.1084615 10.2338462,16.6615385 C10.2534615,16.6715385 10.2723077,16.6815385 10.2911538,16.6934615 Z" id="Shape"></path>
            </g>
        </g>
    </g>
</svg>