<?xml version="1.0" encoding="UTF-8"?>
<svg width="25px" height="23px" viewBox="0 0 25 23" version="1.1" xmlns="http://www.w3.org/2000/svg" xmlns:xlink="http://www.w3.org/1999/xlink">
    <!-- Generator: Sketch 53.2 (72643) - https://sketchapp.com -->
    <title>Path</title>
    <desc>Created with Sketch.</desc>
    <g id="Symbols" stroke="none" stroke-width="1" fill="none" fill-rule="evenodd">
        <g id="Menú-Depositar-dinero" transform="translate(0.000000, -2.000000)" fill="#343B4A">
            <g id="12" transform="translate(0.000000, 2.000000)">
                <path d="M13.846875,0 C8.1765625,0 3.49140625,4.38950668 2.79414062,10.0441483 L1.078125,5.70579479 L0,6.15892335 L2.42109375,12.282402 L8.18007813,9.86128575 L7.73984375,8.74961035 L3.92460938,10.3534841 C4.48007812,5.21279092 8.71601562,1.20068998 13.846875,1.20068998 C19.3546875,1.20068998 23.8351563,5.82099014 23.8351563,11.4997986 C23.8351563,17.1786071 19.3542969,21.7989072 13.846875,21.7989072 C9.7265625,21.7989072 5.97382812,19.1320946 4.50898437,15.1630913 L3.42070312,15.5900391 C5.05664062,20.0222405 9.24609375,23 13.846875,23 C19.996875,22.9995972 25,17.8407789 25,11.4997986 C25,5.15881828 19.996875,0 13.846875,0 Z" id="Path"></path>
            </g>
        </g>
    </g>
</svg>