<?xml version="1.0" encoding="UTF-8"?>
<svg width="26px" height="18px" viewBox="0 0 26 18" version="1.1" xmlns="http://www.w3.org/2000/svg" xmlns:xlink="http://www.w3.org/1999/xlink">
    <!-- Generator: Sketch 53.2 (72643) - https://sketchapp.com -->
    <title>13</title>
    <desc>Created with Sketch.</desc>
    <g id="Symbols" stroke="none" stroke-width="1" fill="none" fill-rule="evenodd">
        <g id="Menú-Mis-Inversiones" transform="translate(0.000000, -6.000000)" fill="#343B4A" fill-rule="nonzero">
            <g id="13" transform="translate(0.000000, 6.000000)">
                <path d="M24.2187362,17.0344828 L1.78057435,17.0344828 C1.09523807,17.0344828 0.506181986,16.5697585 0.347746212,15.9047707 C0.116998726,14.9329277 0,13.9291879 0,12.9201992 C0,9.35139127 1.50595235,5.90774802 4.1315175,3.47188219 C6.79405099,1.00250452 10.2707006,-0.21603403 13.9236608,0.0314689965 C20.4065277,0.477216698 25.705595,5.88473387 25.9875294,12.3428267 L25.9875294,12.3428267 C26.0399351,13.5492525 25.9269988,14.7484108 25.6519706,15.905982 C25.4935348,16.5701622 24.9044787,17.0344828 24.2187362,17.0344828 Z M12.9905147,0.922560642 C9.91848571,0.922560642 7.02520472,2.05065763 4.76485435,4.14736761 C2.32656841,6.40840667 0.928271138,9.60656568 0.928271138,12.9206029 C0.928271138,13.8577229 1.03673871,14.7908052 1.25123637,15.6927983 C1.31014198,15.9390901 1.52748336,16.1118981 1.78016811,16.1118981 L24.2183299,16.1118981 C24.4714209,16.1118981 24.6887623,15.9403014 24.7472617,15.6940096 C25.0027901,14.6188048 25.1076015,13.5048393 25.058852,12.3827986 L25.058852,12.3827986 C24.7972299,6.38700755 19.877596,1.3658858 13.8586615,0.952842415 C13.568196,0.932250809 13.2785429,0.922560642 12.9905147,0.922560642 Z M23.9067396,13.3816934 L21.1491446,13.3816934 L21.1491446,12.458705 L23.9067396,12.458705 L23.9067396,13.3816934 Z M4.85260339,13.3816934 L2.09500843,13.3816934 L2.09500843,12.458705 L4.85260339,12.458705 L4.85260339,13.3816934 Z M13.4654158,4.82204551 L12.5367384,4.82204551 L12.5367384,2.08093941 L13.4654158,2.08093941 L13.4654158,4.82204551 Z M19.0906983,7.52035338 L18.4342054,6.86788211 L20.3841842,4.92984863 L21.0406771,5.5823199 L19.0906983,7.52035338 Z M6.91104972,7.52035338 L4.96107096,5.5823199 L5.61756381,4.92984863 L7.56754257,6.86788211 L6.91104972,7.52035338 Z M12.9998584,15.6176995 C11.6706229,15.6176995 10.5891972,14.5428985 10.5891972,13.2218056 C10.5891972,12.5128084 10.9113499,11.838938 11.4589689,11.3847114 L12.5505508,7.07662447 C12.6025502,6.87151592 12.7882044,6.72777844 13.0006709,6.72777844 L13.0006709,6.72777844 C13.2135436,6.72777844 13.3987915,6.87151592 13.450791,7.07662447 L14.5411541,11.3851152 C15.0887731,11.8393418 15.4105196,12.5136159 15.4105196,13.2218056 C15.4109259,14.5428985 14.3290939,15.6176995 12.9998584,15.6176995 Z M13.0006709,9.07966282 L12.3202095,11.7638392 C12.2933973,11.8696235 12.2296168,11.9624876 12.1402428,12.0262812 C11.750247,12.3044698 11.5174683,12.7514288 11.5174683,13.2218056 C11.5174683,14.0341647 12.1824923,14.6947111 12.9994521,14.6947111 C13.8168182,14.6947111 14.4818422,14.0341647 14.4818422,13.2218056 C14.4818422,12.7514288 14.2490635,12.3048735 13.8590678,12.026685 C13.7701,11.9632951 13.7063194,11.870431 13.6795072,11.764243 L13.0006709,9.07966282 Z" id="Shape"></path>
            </g>
        </g>
    </g>
</svg>