<?xml version="1.0" encoding="utf-8"?>
<!-- Generator: Adobe Illustrator 23.0.1, SVG Export Plug-In . SVG Version: 6.00 Build 0)  -->
<svg version="1.1" id="Layer_1" xmlns:serif="http://www.serif.com/"
	 xmlns="http://www.w3.org/2000/svg" xmlns:xlink="http://www.w3.org/1999/xlink" x="0px" y="0px" viewBox="0 0 612 202.4"
	 style="enable-background:new 0 0 612 202.4;" xml:space="preserve">
<style type="text/css">
	.st0{fill:#0068DC;}
	.st1{fill:#33FDCF;}
	.st2{fill:#52FFFF;}
	.st3{fill:#00FDFF;}
	.st4{fill:#9BFFFF;}
	.st5{fill:#C3FFFF;}
	.st6{fill:#3E0CEF;}
	.st7{fill:#3DFFFF;}
	.st8{fill:#67FFFF;}
	.st9{fill:#84FFFF;}
	.st10{fill:#ABFFFF;}
	.st11{fill:#B0FFFF;}
	.st12{fill:#D6FFFF;}
</style>
<g>
	<path class="st0" d="M228.6,89.8H242V143h-13.3V89.8z M226.7,71.7c0-2.1,0.8-4,2.4-5.6c1.6-1.6,3.6-2.4,6-2.4
		c2.4,0,4.5,0.8,6.2,2.3c1.7,1.5,2.5,3.4,2.5,5.7c0,2.3-0.8,4.2-2.5,5.7c-1.7,1.5-3.7,2.3-6.2,2.3c-2.4,0-4.5-0.8-6-2.4
		C227.5,75.7,226.7,73.8,226.7,71.7z M193.2,100.4h-10.1V89.8h10.1v-7.9c0-3.2,0.4-6.2,1.1-9.2s1.9-5.5,3.6-7.7
		c1.7-2.2,3.9-4,6.6-5.3c2.7-1.3,6.2-1.9,10.3-1.9c1.5,0,2.7,0.1,3.7,0.2c1,0.1,2,0.3,3.1,0.6l-0.9,11.3c-0.7-0.2-1.5-0.4-2.4-0.6
		c-0.9-0.1-1.8-0.2-2.7-0.2c-1.9,0-3.5,0.4-4.7,1.1c-1.2,0.7-2.1,1.7-2.7,2.9c-0.6,1.2-1.1,2.5-1.3,3.9c-0.2,1.4-0.3,2.8-0.3,4.1
		v8.7h12.3v10.6h-12.3V143h-13.3V100.4z"/>
	<path class="st0" d="M251.4,89.8H264v8.5h0.2c1.2-2.7,3.2-5,6.2-7c2.9-2,6.4-3.1,10.4-3.1c3.5,0,6.5,0.6,8.9,1.8
		c2.5,1.2,4.5,2.8,6.1,4.8c1.6,2,2.8,4.3,3.5,6.9c0.7,2.6,1.1,5.3,1.1,8V143h-13.3v-29.5c0-1.6-0.1-3.2-0.3-4.9
		c-0.2-1.7-0.7-3.2-1.4-4.6c-0.7-1.4-1.8-2.5-3.1-3.4c-1.3-0.9-3-1.3-5.2-1.3c-2.1,0-4,0.4-5.5,1.3c-1.6,0.9-2.8,1.9-3.8,3.3
		c-1,1.3-1.8,2.9-2.3,4.6c-0.5,1.7-0.8,3.5-0.8,5.3V143h-13.3V89.8z"/>
	<path class="st0" d="M339.3,103.8c-1.2-1.5-2.8-2.9-4.8-4c-2.1-1.1-4.3-1.7-6.7-1.7c-2.1,0-4.1,0.4-5.8,1.3
		c-1.8,0.9-2.6,2.3-2.6,4.4c0,2,1,3.5,2.9,4.3c1.9,0.8,4.8,1.7,8.5,2.6c2,0.4,4,1,6,1.8c2,0.7,3.8,1.7,5.5,2.9c1.6,1.2,3,2.7,4,4.5
		c1,1.8,1.5,4,1.5,6.5c0,3.2-0.6,5.9-1.8,8.2c-1.2,2.2-2.8,4-4.8,5.4c-2,1.4-4.4,2.4-7,3c-2.7,0.6-5.4,0.9-8.3,0.9
		c-4.1,0-8.1-0.8-12-2.3c-3.9-1.5-7.1-3.6-9.7-6.4l8.7-8.1c1.5,1.9,3.4,3.5,5.7,4.7c2.3,1.2,4.9,1.9,7.8,1.9c1,0,1.9-0.1,2.9-0.3
		c1-0.2,1.9-0.6,2.7-1c0.8-0.5,1.5-1.1,2-1.9c0.5-0.8,0.8-1.8,0.8-3c0-2.2-1-3.8-3-4.7c-2-1-5-1.9-9.1-2.9c-2-0.4-3.9-1-5.8-1.7
		c-1.9-0.7-3.5-1.6-5-2.7c-1.5-1.1-2.6-2.5-3.5-4.2c-0.9-1.7-1.3-3.8-1.3-6.3c0-2.9,0.6-5.5,1.8-7.6c1.2-2.1,2.8-3.9,4.8-5.2
		s4.2-2.4,6.7-3c2.5-0.7,5.1-1,7.7-1c3.8,0,7.5,0.7,11.1,2c3.6,1.3,6.5,3.3,8.6,6L339.3,103.8z"/>
	<path class="st0" d="M419,88.2c3.5,0,6.5,0.6,8.9,1.8c2.5,1.2,4.5,2.8,6.1,4.8c1.6,2,2.8,4.3,3.5,6.9c0.7,2.6,1.1,5.3,1.1,8V143
		h-13.3v-29.5c0-1.6-0.1-3.2-0.3-4.9c-0.2-1.7-0.7-3.2-1.4-4.6c-0.7-1.4-1.8-2.5-3.1-3.4c-1.3-0.9-3-1.3-5.2-1.3
		c-2.1,0-3.8,0.4-5.3,1.3c-1.5,0.9-2.7,2-3.7,3.4c-1,1.4-1.7,3-2.1,4.7c-0.4,1.7-0.7,3.5-0.7,5.2V143h-13.3v-32.2
		c0-3.3-0.8-6.1-2.4-8.3c-1.6-2.2-4.1-3.3-7.5-3.3c-2,0-3.7,0.4-5.2,1.3c-1.5,0.9-2.7,1.9-3.6,3.3c-0.9,1.3-1.6,2.9-2.1,4.6
		c-0.5,1.7-0.7,3.5-0.7,5.3V143h-13.3V89.8h12.7v8.5h0.2c0.6-1.3,1.4-2.6,2.4-3.8c1-1.2,2.2-2.3,3.6-3.2c1.4-1,2.9-1.7,4.7-2.3
		c1.8-0.6,3.7-0.8,5.9-0.8c4.1,0,7.6,0.9,10.3,2.8c2.7,1.8,4.8,4.3,6.3,7.3c1.8-3.3,4.1-5.7,7.1-7.5C411.6,89.1,415,88.2,419,88.2z"
		/>
	<path class="st0" d="M481,136.3h-0.3c-1.3,2.4-3.5,4.3-6.4,5.8c-3,1.5-6.3,2.3-10.1,2.3c-2.1,0-4.4-0.3-6.7-0.8
		c-2.3-0.6-4.5-1.5-6.4-2.8c-2-1.3-3.6-3-4.9-5.1c-1.3-2.1-1.9-4.7-1.9-7.8c0-4,1.1-7.2,3.4-9.5c2.3-2.4,5.2-4.2,8.7-5.4
		c3.6-1.3,7.5-2.1,11.8-2.5c4.3-0.4,8.6-0.6,12.7-0.6v-1.3c0-3.3-1.2-5.8-3.6-7.4c-2.4-1.6-5.3-2.4-8.6-2.4c-2.8,0-5.5,0.6-8.1,1.8
		c-2.6,1.2-4.7,2.6-6.4,4.3l-6.9-8.1c3-2.8,6.5-4.9,10.5-6.3c4-1.4,8-2.1,12-2.1c4.7,0,8.6,0.7,11.7,2c3.1,1.3,5.5,3.1,7.3,5.2
		c1.8,2.1,3,4.5,3.7,7.2c0.7,2.7,1.1,5.3,1.1,8V143H481V136.3z M480.8,118.7h-3c-2.1,0-4.4,0.1-6.8,0.3c-2.4,0.2-4.6,0.6-6.5,1.2
		c-2,0.6-3.7,1.5-5,2.7c-1.3,1.1-2,2.7-2,4.7c0,1.3,0.3,2.3,0.8,3.2s1.3,1.5,2.2,2.1c0.9,0.5,1.9,0.9,3,1.1c1.1,0.2,2.2,0.3,3.3,0.3
		c4.6,0,8.1-1.2,10.4-3.7c2.4-2.4,3.6-5.8,3.6-10V118.7z"/>
	<path class="st0" d="M500.7,89.8h12.8v8.9h0.2c1.5-3.1,3.6-5.6,6.2-7.5c2.7-1.9,5.8-2.9,9.3-2.9c0.5,0,1.1,0,1.7,0.1
		c0.6,0,1.1,0.1,1.6,0.3v12.2c-0.9-0.2-1.6-0.4-2.3-0.4c-0.6-0.1-1.2-0.1-1.8-0.1c-3,0-5.5,0.6-7.3,1.7c-1.8,1.1-3.3,2.4-4.3,4
		s-1.7,3.1-2.1,4.8c-0.4,1.6-0.6,2.9-0.6,3.9V143h-13.3V89.8z"/>
	<path class="st0" d="M537.7,99.3V88.7h9.3V73.3h13.1v15.4h13.3v10.6h-13.3v24.7c0,2.4,0.4,4.3,1.3,5.9c0.9,1.6,2.8,2.3,5.7,2.3
		c0.9,0,1.8-0.1,2.9-0.3c1-0.2,2-0.5,2.8-0.8l0.4,10.4c-1.2,0.4-2.6,0.8-4.2,1.1c-1.6,0.3-3.2,0.4-4.7,0.4c-3.6,0-6.4-0.5-8.7-1.5
		c-2.2-1-4-2.4-5.3-4.1c-1.3-1.7-2.2-3.7-2.7-6c-0.5-2.3-0.7-4.7-0.7-7.3V99.3H537.7z"/>
</g>
<g>
	<path class="st0" d="M101.2,71.1c6.6-5.3,14.9-8.5,24.1-8.5c4.3,0,8.5,0.8,12.4,2.1c-5.2-15.2-19.6-26.2-36.5-26.2
		s-31.4,11-36.5,26.2c3.9-1.3,8-2.1,12.4-2.1C86.3,62.6,94.6,65.9,101.2,71.1z"/>
	<path class="st1" d="M71.1,101.2c-5.3-6.6-8.5-14.9-8.5-24.1c0-4.3,0.8-8.5,2.1-12.4c-15.2,5.2-26.2,19.6-26.2,36.5
		s11,31.4,26.2,36.5c-1.3-3.9-2.1-8-2.1-12.4C62.6,116.1,65.9,107.8,71.1,101.2z"/>
	<path class="st2" d="M71.1,101.2c4.5-5.7,10.7-10,17.7-12.4c2.4-7,6.7-13.1,12.4-17.7c-6.6-5.3-14.9-8.5-24.1-8.5
		c-4.3,0-8.5,0.8-12.4,2.1c-1.3,3.9-2.1,8-2.1,12.4C62.6,86.3,65.9,94.6,71.1,101.2z"/>
	<path class="st3" d="M101.2,131.2c-6.6,5.3-14.9,8.5-24.1,8.5c-4.3,0-8.5-0.8-12.4-2.1c5.2,15.2,19.6,26.2,36.5,26.2
		s31.4-11,36.5-26.2c-3.9,1.3-8,2.1-12.4,2.1C116.1,139.7,107.8,136.5,101.2,131.2z"/>
	<path class="st4" d="M101.2,131.2c-5.7-4.5-10-10.7-12.4-17.7c-7-2.4-13.1-6.7-17.7-12.4c-5.3,6.6-8.5,14.9-8.5,24.1
		c0,4.3,0.8,8.5,2.1,12.4c3.9,1.3,8,2.1,12.4,2.1C86.3,139.7,94.6,136.5,101.2,131.2z"/>
	<path class="st5" d="M88.8,88.8c-7,2.4-13.1,6.7-17.7,12.4c4.5,5.7,10.7,10,17.7,12.4c-1.3-3.9-2.1-8-2.1-12.4
		C86.7,96.8,87.5,92.7,88.8,88.8z"/>
	<path class="st6" d="M163.8,101.2c0-16.9-11-31.4-26.2-36.5c1.3,3.9,2.1,8,2.1,12.4c0,9.2-3.2,17.5-8.5,24.1
		c5.3,6.6,8.5,14.9,8.5,24.1c0,4.3-0.8,8.5-2.1,12.4C152.9,132.6,163.8,118.1,163.8,101.2z"/>
	<path class="st7" d="M101.2,71.1c5.7,4.5,10,10.7,12.4,17.7c7,2.4,13.1,6.7,17.7,12.4c5.3-6.6,8.5-14.9,8.5-24.1
		c0-4.3-0.8-8.5-2.1-12.4c-3.9-1.3-8-2.1-12.4-2.1C116.1,62.6,107.8,65.9,101.2,71.1z"/>
	<path class="st8" d="M113.6,88.8c-2.4-7-6.7-13.1-12.4-17.7c-5.7,4.5-10,10.7-12.4,17.7c3.9-1.3,8-2.1,12.4-2.1
		C105.5,86.7,109.7,87.5,113.6,88.8z"/>
	<path class="st9" d="M131.2,101.2c-4.5,5.7-10.7,10-17.7,12.4c-2.4,7-6.7,13.1-12.4,17.7c6.6,5.3,14.9,8.5,24.1,8.5
		c4.3,0,8.5-0.8,12.4-2.1c1.3-3.9,2.1-8,2.1-12.4C139.7,116.1,136.5,107.8,131.2,101.2z"/>
	<path class="st10" d="M113.6,88.8c1.3,3.9,2.1,8,2.1,12.4c0,4.3-0.8,8.5-2.1,12.4c7-2.4,13.1-6.7,17.7-12.4
		C126.7,95.5,120.7,91.2,113.6,88.8z"/>
	<path class="st11" d="M88.8,113.6c2.4,7,6.7,13.1,12.4,17.7c5.7-4.5,10-10.7,12.4-17.7c-3.9,1.3-8,2.1-12.4,2.1
		C96.8,115.7,92.7,114.9,88.8,113.6z"/>
	<path class="st12" d="M113.6,88.8c-3.9-1.3-8-2.1-12.4-2.1c-4.3,0-8.5,0.8-12.4,2.1c-1.3,3.9-2.1,8-2.1,12.4
		c0,4.3,0.8,8.5,2.1,12.4c3.9,1.3,8,2.1,12.4,2.1c4.3,0,8.5-0.8,12.4-2.1c1.3-3.9,2.1-8,2.1-12.4C115.7,96.8,114.9,92.7,113.6,88.8z
		"/>
</g>
</svg>
