<?xml version="1.0" encoding="utf-8"?>
<!-- Generator: Adobe Illustrator 23.0.1, SVG Export Plug-In . SVG Version: 6.00 Build 0)  -->
<svg version="1.1" id="Layer_1" xmlns:serif="http://www.serif.com/"
	 xmlns="http://www.w3.org/2000/svg" xmlns:xlink="http://www.w3.org/1999/xlink" x="0px" y="0px" viewBox="0 0 202.4 202.4"
	 style="enable-background:new 0 0 612 202.4;" xml:space="preserve">
<style type="text/css">
	.st0{fill:#0068DC;}
	.st1{fill:#33FDCF;}
	.st2{fill:#52FFFF;}
	.st3{fill:#00FDFF;}
	.st4{fill:#9BFFFF;}
	.st5{fill:#C3FFFF;}
	.st6{fill:#3E0CEF;}
	.st7{fill:#3DFFFF;}
	.st8{fill:#67FFFF;}
	.st9{fill:#84FFFF;}
	.st10{fill:#ABFFFF;}
	.st11{fill:#B0FFFF;}
	.st12{fill:#D6FFFF;}
</style>
<g>
	<path class="st0" d="M101.2,71.1c6.6-5.3,14.9-8.5,24.1-8.5c4.3,0,8.5,0.8,12.4,2.1c-5.2-15.2-19.6-26.2-36.5-26.2
		s-31.4,11-36.5,26.2c3.9-1.3,8-2.1,12.4-2.1C86.3,62.6,94.6,65.9,101.2,71.1z"/>
	<path class="st1" d="M71.1,101.2c-5.3-6.6-8.5-14.9-8.5-24.1c0-4.3,0.8-8.5,2.1-12.4c-15.2,5.2-26.2,19.6-26.2,36.5
		s11,31.4,26.2,36.5c-1.3-3.9-2.1-8-2.1-12.4C62.6,116.1,65.9,107.8,71.1,101.2z"/>
	<path class="st2" d="M71.1,101.2c4.5-5.7,10.7-10,17.7-12.4c2.4-7,6.7-13.1,12.4-17.7c-6.6-5.3-14.9-8.5-24.1-8.5
		c-4.3,0-8.5,0.8-12.4,2.1c-1.3,3.9-2.1,8-2.1,12.4C62.6,86.3,65.9,94.6,71.1,101.2z"/>
	<path class="st3" d="M101.2,131.2c-6.6,5.3-14.9,8.5-24.1,8.5c-4.3,0-8.5-0.8-12.4-2.1c5.2,15.2,19.6,26.2,36.5,26.2
		s31.4-11,36.5-26.2c-3.9,1.3-8,2.1-12.4,2.1C116.1,139.7,107.8,136.5,101.2,131.2z"/>
	<path class="st4" d="M101.2,131.2c-5.7-4.5-10-10.7-12.4-17.7c-7-2.4-13.1-6.7-17.7-12.4c-5.3,6.6-8.5,14.9-8.5,24.1
		c0,4.3,0.8,8.5,2.1,12.4c3.9,1.3,8,2.1,12.4,2.1C86.3,139.7,94.6,136.5,101.2,131.2z"/>
	<path class="st5" d="M88.8,88.8c-7,2.4-13.1,6.7-17.7,12.4c4.5,5.7,10.7,10,17.7,12.4c-1.3-3.9-2.1-8-2.1-12.4
		C86.7,96.8,87.5,92.7,88.8,88.8z"/>
	<path class="st6" d="M163.8,101.2c0-16.9-11-31.4-26.2-36.5c1.3,3.9,2.1,8,2.1,12.4c0,9.2-3.2,17.5-8.5,24.1
		c5.3,6.6,8.5,14.9,8.5,24.1c0,4.3-0.8,8.5-2.1,12.4C152.9,132.6,163.8,118.1,163.8,101.2z"/>
	<path class="st7" d="M101.2,71.1c5.7,4.5,10,10.7,12.4,17.7c7,2.4,13.1,6.7,17.7,12.4c5.3-6.6,8.5-14.9,8.5-24.1
		c0-4.3-0.8-8.5-2.1-12.4c-3.9-1.3-8-2.1-12.4-2.1C116.1,62.6,107.8,65.9,101.2,71.1z"/>
	<path class="st8" d="M113.6,88.8c-2.4-7-6.7-13.1-12.4-17.7c-5.7,4.5-10,10.7-12.4,17.7c3.9-1.3,8-2.1,12.4-2.1
		C105.5,86.7,109.7,87.5,113.6,88.8z"/>
	<path class="st9" d="M131.2,101.2c-4.5,5.7-10.7,10-17.7,12.4c-2.4,7-6.7,13.1-12.4,17.7c6.6,5.3,14.9,8.5,24.1,8.5
		c4.3,0,8.5-0.8,12.4-2.1c1.3-3.9,2.1-8,2.1-12.4C139.7,116.1,136.5,107.8,131.2,101.2z"/>
	<path class="st10" d="M113.6,88.8c1.3,3.9,2.1,8,2.1,12.4c0,4.3-0.8,8.5-2.1,12.4c7-2.4,13.1-6.7,17.7-12.4
		C126.7,95.5,120.7,91.2,113.6,88.8z"/>
	<path class="st11" d="M88.8,113.6c2.4,7,6.7,13.1,12.4,17.7c5.7-4.5,10-10.7,12.4-17.7c-3.9,1.3-8,2.1-12.4,2.1
		C96.8,115.7,92.7,114.9,88.8,113.6z"/>
	<path class="st12" d="M113.6,88.8c-3.9-1.3-8-2.1-12.4-2.1c-4.3,0-8.5,0.8-12.4,2.1c-1.3,3.9-2.1,8-2.1,12.4
		c0,4.3,0.8,8.5,2.1,12.4c3.9,1.3,8,2.1,12.4,2.1c4.3,0,8.5-0.8,12.4-2.1c1.3-3.9,2.1-8,2.1-12.4C115.7,96.8,114.9,92.7,113.6,88.8z
		"/>
</g>
</svg>
