<?xml version="1.0" encoding="UTF-8"?>
<svg width="26px" height="26px" viewBox="0 0 26 26" version="1.1" xmlns="http://www.w3.org/2000/svg" xmlns:xlink="http://www.w3.org/1999/xlink">
    <!-- Generator: Sketch 53.2 (72643) - https://sketchapp.com -->
    <title>Group 4</title>
    <desc>Created with Sketch.</desc>
    <g id="Cuentas-bancarias" stroke="none" stroke-width="1" fill="none" fill-rule="evenodd">
        <g transform="translate(-797.000000, -537.000000)" fill="#000000" id="Group-4">
            <g transform="translate(797.000000, 537.000000)">
                <path d="M12.9993709,1.29322655 C6.54749577,1.29322655 1.29716913,6.54515631 1.29716913,13 C1.29716913,19.4548437 6.54749577,24.7067734 12.9993709,24.7067734 C19.4525042,24.7067734 24.7028309,19.4548437 24.7028309,13 C24.7028309,6.54515631 19.4525042,1.29322655 12.9993709,1.29322655 Z M12.9993709,26 C5.83159932,26 0,20.1685643 0,13 C0,5.83269008 5.83159932,0 12.9993709,0 C20.1684007,0 26,5.83269008 26,13 C26,20.1685643 20.1684007,26 12.9993709,26 Z" id="Fill-1"></path>
                <path d="M13.499515,21 C13.2230844,21 13,20.7025113 13,20.3354797 L13,5.66452028 C13,5.29748873 13.2230844,5 13.499515,5 C13.7759457,5 14,5.29748873 14,5.66452028 L14,20.3354797 C14,20.7025113 13.7759457,21 13.499515,21 Z" id="Fill-2"></path>
                <path d="M20.3347865,14 L5.66521353,14 C5.29708565,14 5,13.7759457 5,13.499515 C5,13.2230844 5.29708565,13 5.66521353,13 L20.3347865,13 C20.7029143,13 21,13.2230844 21,13.499515 C21,13.7759457 20.7029143,14 20.3347865,14 Z" id="Fill-3"></path>
            </g>
        </g>
    </g>
</svg>